Coordinates
version=1
nRows=12
nColumns=33
inDegrees=yes

Units are S.I. units (second, meters, Newtons, ...)
Angles are in degrees.

endheader
time	ground_thorax_rot_x	ground_thorax_rot_y	ground_thorax_rot_z	ground_thorax_tx	ground_thorax_ty	ground_thorax_tz	clav_prot_r	clav_elev_r	scapula_abduction_r	scapula_elevation_r	scapula_upward_rot_r	scapula_winging_r	shoulder_elv_r	plane_of_elev_r	axial_rot_r	elbow_flexion_r	pro_sup_r	wrist_flex_r	wrist_dev_r	clav_prot_l	clav_elev_l	scapula_abduction_l	scapula_elevation_l	scapula_upward_rot_l	scapula_winging_l	shoulder_elv_l	plane_of_elev_l	axial_rot_l	elbow_flexion_l	pro_sup_l	wrist_flex_l	wrist_dev_l
     10.20000000	     31.33488324	     12.10037501	     16.12071750	    -79.77137062	    787.62461710	      9.83320692	     -2.29505176	     30.45415753	     45.00000000	     29.91979726	     26.65838946	   -830.76459728	  -2464.73799889	     17.52571074	   -179.99999979	   2166.73925754	    -94.69000343	     14.43736506	      8.63325682	     -0.07331877	    -45.00000000	    -45.00000000	     45.00000000	      0.29970806	   -983.34506793	  -2445.70615883	     14.23685680	    179.99999979	   -717.97502855	   -128.07433050	      5.63002569	    -14.21101751
     10.21000000	     31.48445222	     11.79922373	     15.62329442	    -79.73632704	    787.71738430	     10.01245095	     -2.26570955	     30.47138717	     45.00000000	     29.83733820	     26.56827896	   -830.45286373	  -2464.79316983	     17.68244655	   -179.99999979	   2166.82770990	    -95.21964583	     15.14594866	      8.32877929	      0.11482254	    -45.00000000	    -45.00000000	     45.00000000	      0.40916912	   -983.62041607	  -2445.81954269	     14.55392390	    179.99999979	   -717.74624387	   -128.50891512	      5.77621574	    -14.10092396
     10.22000000	     31.38348810	     12.12022628	     16.28042635	    -79.75161009	    787.80224726	     10.17110902	     -2.22632282	     30.44965544	     45.00000000	     29.89355917	     26.60324813	   -830.69447533	  -2464.64563586	     17.45014575	   -179.99999979	   2166.78090839	    -95.64854268	     14.13303180	      8.77741285	     -0.14999330	    -45.00000000	    -45.00000000	     45.00000000	      0.35201571	   -983.55030459	  -2445.64002465	     14.11604576	    179.99999979	   -717.79475635	   -129.02203186	      5.73251281	    -14.17421203
     10.23000000	     31.49527357	     11.89671460	     15.96324130	    -79.81485690	    787.87991951	     10.30995490	     -2.25017615	     30.45693428	     45.00000000	     29.84025046	     26.52247586	   -830.49417746	  -2464.73304653	     17.54830386	   -179.99999979	   2166.80990144	    -96.16313477	     14.69168415	      8.51745044	     -0.01902552	    -45.00000000	    -45.00000000	     45.00000000	      0.39417784	   -983.60406706	  -2445.75238330	     14.36763852	    179.99999979	   -717.86818372	   -129.53632789	      5.77589447	    -14.11707650
     10.24000000	     31.60818561	     11.91991462	     16.10015268	    -79.91605634	    787.94165313	     10.41419993	     -2.17489718	     30.45205319	     45.00000000	     29.93308966	     26.54145223	   -830.56137402	  -2464.77745396	     17.60846393	   -179.99999979	   2166.95097012	    -96.42073819	     14.44154391	      8.79902448	     -0.06652681	    -45.00000000	    -45.00000000	     45.00000000	      0.39834796	   -983.44849756	  -2445.94061093	     14.20408675	    179.99999979	   -718.20059189	   -129.91462078	      5.74796329	    -14.25517522
     10.25000000	     31.60855726	     11.81935108	     16.00193707	    -80.06690675	    787.99873202	     10.50434245	     -2.26043844	     30.52874973	     45.00000000	     29.80869792	     26.49151606	   -830.43394873	  -2464.70362375	     17.53772723	   -179.99999979	   2166.86041809	    -96.72221235	     14.70384129	      8.51555483	     -0.04119461	    -45.00000000	    -45.00000000	     45.00000000	      0.37792582	   -983.58157074	  -2445.80229999	     14.36761247	    179.99999979	   -717.93035626	   -130.25304379	      5.79606630	    -14.10118271
     10.26000000	     31.78730595	     11.97109102	     16.08638885	    -80.24807736	    788.04202141	     10.56663458	     -2.09844112	     30.44501856	     45.00000000	     30.06041024	     26.43821939	   -830.59552625	  -2464.74242694	     17.58921470	   -179.99999979	   2166.91329225	    -96.87861790	     14.30969545	      8.88479007	     -0.09991006	    -45.00000000	    -45.00000000	     45.00000000	      0.42626086	   -983.62753658	  -2445.97883998	     14.21312110	    179.99999979	   -717.86012217	   -130.55688450	      5.89181583	    -14.22491180
     10.27000000	     31.76553320	     11.83978554	     16.02354136	    -80.47939642	    788.07750858	     10.61220769	     -2.25529765	     30.58435251	     45.00000000	     29.89099361	     26.39044218	   -830.33711241	  -2464.58911465	     17.55222828	   -179.99999979	   2166.94443087	    -97.08732098	     14.69099421	      8.52988664	     -0.06747282	    -45.00000000	    -45.00000000	     45.00000000	      0.40614890	   -983.59138651	  -2445.84270127	     14.39071026	    179.99999979	   -717.86914548	   -130.89378374	      5.83995254	    -14.07298738
     10.28000000	     31.85470090	     11.95205608	     16.11182180	    -80.73431731	    788.10023496	     10.63545487	     -1.98952217	     30.53424603	     45.00000000	     30.12716510	     26.39804119	   -830.81189255	  -2464.84991140	     17.53276874	   -179.99999979	   2166.61857602	    -97.19557822	     14.22562722	      8.90247281	     -0.11920331	    -45.00000000	    -45.00000000	     45.00000000	      0.53399278	   -983.46529491	  -2445.91435329	     14.22145624	    179.99999979	   -718.06720370	   -131.18805792	      5.90968086	    -14.30418167
     10.29000000	     31.84764550	     11.81769666	     16.02386163	    -81.03440395	    788.11300829	     10.64122308	     -2.30341652	     30.77177648	     45.00000000	     29.83044350	     26.34580727	   -830.27097906	  -2464.47243373	     17.53535379	   -179.99999979	   2166.89532200	    -97.32349685	     14.80408149	      8.41116123	     -0.09758714	    -45.00000000	    -45.00000000	     45.00000000	      0.48813795	   -983.46057892	  -2445.80464664	     14.44818576	    179.99999979	   -717.93743264	   -131.45634342	      5.82461131	    -14.03082566
     10.30000000	     31.91970233	     11.94075420	     16.12007366	    -81.36520025	    788.11481226	     10.62852224	     -2.00602927	     30.74948811	     45.00000000	     29.99952270	     26.29915529	   -830.61207069	  -2464.65494784	     17.65517001	   -179.99999979	   2166.82687481	    -97.37025657	     14.26338598	      8.88837156	     -0.14064523	    -45.00000000	    -45.00000000	     45.00000000	      0.57690263	   -983.43444841	  -2445.76270197	     14.33737870	    179.99999979	   -717.84139476	   -131.74676723	      5.96978231	    -14.20993138
     10.31000000	     32.02550859	     11.88893656	     16.05402963	    -81.72735170	    788.10604294	     10.59811175	     -2.17495854	     30.81466358	     45.00000000	     30.06482857	     26.22568539	   -830.36965306	  -2464.54170613	     17.50574588	   -179.99999979	   2166.85976636	    -97.46086581	     14.63611772	      8.55609843	     -0.14060411	    -45.00000000	    -45.00000000	     45.00000000	      0.59521087	   -983.37922149	  -2445.82502242	     14.39518037	    179.99999979	   -717.81762366	   -132.00013514	      5.92921742	    -14.08282420
